<?xml version="1.0" encoding="utf-8"?>
<!-- Generator: Adobe Illustrator 24.1.1, SVG Export Plug-In . SVG Version: 6.00 Build 0)  -->
<svg version="1.1" id="레이어_1" xmlns="http://www.w3.org/2000/svg" xmlns:xlink="http://www.w3.org/1999/xlink" x="0px"
	 y="0px" viewBox="0 0 187.09 65.2" style="enable-background:new 0 0 187.09 65.2;" xml:space="preserve">
<style type="text/css">
	.st0{fill:#3964AE;}
	.st1{fill:#0C3275;}
	.st2{fill:#003E96;}
	.st3{fill:none;}
	.st4{fill:#26489B;}
</style>
<path class="st0" d="M1.46,27.84l14.17-16.25c0,0,6.5-5.33,9.49-6.5L38.9,1.06c0,0,5.33-1.69,3.77,2.73c0,0-10.53,15.47-17.81,20.8
	c0,0-10.27,5.85-18.85,6.24C6.01,30.83-1.4,32,1.46,27.84z"/>
<path class="st1" d="M46.97,59.7L30.71,39.93c-3.64-4.16-6.63-5.2-6.63-5.2C17.71,32.65,5.1,34.86,5.1,34.86
	c-5.98,0.78-3.12,6.24-3.12,6.24c4.94,9.62,20.8,20.28,20.8,20.28c10.4,4.81,23.01,2.73,23.01,2.73
	C49.96,63.21,46.97,59.7,46.97,59.7z M36.85,57.75c0.91,2.7-2.82,2.8-2.82,2.8c-4.72-0.04-8.49-2.31-8.49-2.31
	C20.25,56.1,7.78,43,7.78,43c-3.54-3.73-0.76-5.04-0.76-5.04c5.48-3.07,15.24-1.13,15.24-1.13c5,1.39,6.95,5.13,6.95,5.13
	c-5.99-3.1-14.19-1.77-14.19-1.77c-3.25,0.46-0.86,2.72-0.86,2.72l10.26,9.3c-0.66-0.56,4.98,4.51,7.99,2.65
	c1.47-0.79,0.59-1.9,0.59-1.9c-2.29-3.26-5.34-1.77-5.34-1.77C26.89,50.84,25.21,49,25.21,49c-1.2-1.72,0.44-2.22,0.44-2.22
	s1.32-0.67,5.56,0.62c0,0,3.21,0.87,5.03,3.41l6.87,8.54C39.59,60.53,36.85,57.75,36.85,57.75z"/>
<g>
	<path class="st2" d="M78.68,22.61v-2.65h9.49v-4.89h3.21v4.89h12.05v2.65H78.68z M95.24,18.4c0.28-1.14,0.49-2.27,0.65-3.39
		c0.16-1.12,0.25-2.13,0.27-3.03H82.42V9.26h17.03c0,1.91-0.09,3.67-0.28,5.3c-0.19,1.63-0.44,3.07-0.75,4.33L95.24,18.4z
		 M91.05,23.9c0.9,0,1.79,0.13,2.65,0.4c0.86,0.27,1.63,0.65,2.31,1.16c0.68,0.51,1.22,1.13,1.62,1.86c0.4,0.73,0.6,1.56,0.6,2.5
		c0,0.94-0.2,1.78-0.6,2.51c-0.4,0.73-0.94,1.34-1.62,1.86c-0.68,0.51-1.45,0.9-2.31,1.16c-0.86,0.26-1.75,0.4-2.65,0.4
		c-0.92,0-1.81-0.13-2.67-0.4c-0.86-0.27-1.62-0.65-2.3-1.16c-0.68-0.51-1.22-1.13-1.62-1.86c-0.4-0.73-0.6-1.56-0.6-2.51
		c0-0.94,0.2-1.78,0.6-2.5c0.4-0.73,0.94-1.35,1.62-1.86c0.68-0.51,1.44-0.9,2.3-1.16C89.24,24.04,90.13,23.9,91.05,23.9z
		 M91.05,26.62c-0.53,0-1.04,0.08-1.52,0.24c-0.48,0.16-0.91,0.38-1.28,0.66c-0.37,0.29-0.67,0.62-0.88,1.02
		c-0.22,0.39-0.32,0.83-0.32,1.3c0,0.49,0.11,0.93,0.32,1.33c0.22,0.39,0.51,0.73,0.88,1.02c0.37,0.28,0.8,0.5,1.28,0.65
		c0.48,0.15,0.99,0.22,1.52,0.22c0.53,0,1.04-0.07,1.52-0.22c0.48-0.15,0.91-0.36,1.28-0.65c0.37-0.29,0.67-0.62,0.88-1.02
		c0.22-0.39,0.32-0.83,0.32-1.33c0-0.47-0.11-0.9-0.32-1.3c-0.22-0.39-0.51-0.73-0.88-1.02c-0.37-0.28-0.8-0.51-1.28-0.66
		C92.09,26.69,91.58,26.62,91.05,26.62z"/>
	<path class="st2" d="M120.63,21.96c-1.36-0.65-2.58-1.45-3.67-2.4c-1.09-0.95-1.93-1.99-2.52-3.11c-0.55,1.24-1.38,2.39-2.49,3.46
		c-1.11,1.07-2.4,2-3.87,2.78l-1.97-2.47c1.96-0.92,3.54-2.15,4.74-3.68c1.24-1.55,1.86-3.34,1.86-5.36V8.64h3.39v2.44
		c0,1.93,0.6,3.6,1.8,5.04c1.2,1.41,2.75,2.51,4.65,3.3L120.63,21.96z M112.77,35.37v-7.31h12.4v-2.03h-12.4V23.4h15.59v7.19h-12.43
		v2.12H129v2.65H112.77z M125.17,8.35h3.18v13.82h-3.18V8.35z"/>
	<path class="st2" d="M157.58,18.96v2.56h-24.69v-2.56h16.94c0.1-0.51,0.19-1,0.28-1.47c0.09-0.47,0.15-0.92,0.19-1.36l-13.64,0.56
		l-0.74-2.8l14.58-0.38c0.02-0.28,0.03-0.55,0.04-0.83c0.01-0.28,0.02-0.57,0.04-0.88h-13.96V9.09h17.24
		c-0.02,1.16-0.04,2.21-0.07,3.15c-0.03,0.94-0.08,1.79-0.16,2.53c-0.08,0.67-0.16,1.35-0.25,2.03c-0.09,0.69-0.21,1.4-0.37,2.15
		H157.58z M137.04,35.48v-7.04h13.26v-1.77h-13.29v-2.62h16.47v6.92H140.2v1.86h13.93v2.65H137.04z"/>
	<path class="st2" d="M161.64,14.54h8.54v-2.56h-8.54V9.26h11.64v7.98h-8.46v2.71c2.08,0.02,4.18-0.05,6.29-0.21
		c2.11-0.16,4.15-0.41,6.11-0.77l0.38,2.62c-2.08,0.39-4.46,0.68-7.15,0.85c-2.68,0.18-5.62,0.25-8.82,0.21V14.54z M167.03,35.48
		V24.91h3.21v2.83h9.16v-2.83h3.18v10.58H167.03z M179.41,32.8v-2.42h-9.16v2.42H179.41z M179.38,8.35h3.18V23.9h-3.18v-7.39h-4.51
		v-2.65h4.51V8.35z"/>
</g>
<path class="st3" d="M57.62,35.51c-2.09,3.07-6.02,3.97-8.82,1.87c-2.9-2.18-3.45-6.69-1.15-9.91c0,0,7.51-8.94,7.17-9.01
	c-0.34-0.07-4.37-4.75-4.72-4.73C49.75,13.76,42.1,23,42.1,23c-5.17,7.07-4.1,16.69,2.1,20.97c5.74,3.96,13.71,1.66,18.01-4.77
	l5.58-8.35l-4.34-3.89L57.62,35.51z"/>
<path class="st3" d="M57.62,35.51c-2.09,3.07-6.02,3.97-8.82,1.87c-2.9-2.18-3.45-6.69-1.15-9.91c0,0,7.51-8.94,7.17-9.01
	c-0.34-0.07-4.37-4.75-4.72-4.73C49.75,13.76,42.1,23,42.1,23c-5.17,7.07-4.1,16.69,2.1,20.97c5.74,3.96,13.71,1.66,18.01-4.77
	l5.58-8.35l-4.34-3.89L57.62,35.51z"/>
<path class="st4" d="M68.44,28.04L54.65,4.25c-3.25-3.12-5.72,0.26-5.72,0.26c-1.17,1.43-14.56,18.46-14.56,18.46
	c-4.29,6.24-0.52,12.35-0.52,12.35l17.81,23.92c4.29,2.86,6.24-1.56,6.24-1.56l10.53-19.11C71.17,32.98,68.44,28.04,68.44,28.04z
	 M62.21,39.21c-4.29,6.42-12.27,8.73-18.01,4.77C38,39.69,36.93,30.07,42.1,23c0,0,7.64-9.24,7.99-9.27
	c0.35-0.03,4.38,4.65,4.72,4.73c0.34,0.07-7.17,9.01-7.17,9.01c-2.29,3.22-1.75,7.73,1.15,9.91c2.8,2.1,6.73,1.2,8.82-1.87
	l5.83-8.54l4.34,3.89L62.21,39.21z"/>
<g>
	<path class="st4" d="M86.35,49.13c0.11-0.02,0.23-0.03,0.35-0.04c0.12-0.01,0.25-0.01,0.37-0.01c0.12,0,0.25,0,0.37,0.01
		c0.12,0.01,0.24,0.02,0.34,0.04v4.96c-0.2,0.09-0.41,0.16-0.65,0.22c-0.24,0.06-0.48,0.11-0.73,0.14
		c-0.25,0.03-0.51,0.06-0.76,0.08c-0.25,0.02-0.5,0.03-0.72,0.03c-0.76,0-1.43-0.12-2.04-0.35c-0.6-0.24-1.11-0.58-1.53-1.03
		c-0.42-0.45-0.73-0.99-0.95-1.63c-0.22-0.64-0.33-1.37-0.33-2.18c0-0.81,0.11-1.54,0.34-2.2c0.23-0.66,0.55-1.21,0.97-1.68
		c0.42-0.46,0.92-0.82,1.5-1.07s1.22-0.38,1.93-0.38c0.54,0,1,0.04,1.4,0.11c0.4,0.07,0.75,0.17,1.08,0.29
		c-0.02,0.22-0.06,0.42-0.12,0.6c-0.06,0.18-0.13,0.38-0.22,0.59c-0.26-0.08-0.55-0.16-0.86-0.23c-0.31-0.07-0.69-0.1-1.15-0.1
		c-0.5,0-0.96,0.09-1.37,0.27c-0.41,0.18-0.76,0.44-1.05,0.79c-0.29,0.34-0.51,0.77-0.67,1.27c-0.16,0.5-0.24,1.08-0.24,1.73
		c0,0.67,0.08,1.25,0.25,1.73c0.17,0.48,0.4,0.89,0.7,1.21c0.3,0.33,0.66,0.57,1.07,0.72c0.41,0.16,0.87,0.23,1.37,0.23
		c0.3,0,0.57-0.02,0.79-0.05c0.23-0.03,0.42-0.07,0.58-0.12V49.13z"/>
	<path class="st4" d="M92.92,54.56c-0.57,0-1.06-0.1-1.48-0.29c-0.42-0.19-0.78-0.46-1.06-0.8c-0.28-0.34-0.49-0.74-0.63-1.2
		c-0.14-0.46-0.21-0.96-0.21-1.5c0-0.54,0.07-1.04,0.21-1.5c0.14-0.46,0.35-0.86,0.63-1.2c0.28-0.34,0.64-0.61,1.06-0.81
		c0.42-0.2,0.92-0.3,1.48-0.3c0.57,0,1.06,0.1,1.48,0.3c0.42,0.2,0.78,0.47,1.06,0.81c0.28,0.34,0.49,0.74,0.63,1.2
		c0.14,0.46,0.21,0.96,0.21,1.5c0,0.54-0.07,1.04-0.21,1.5c-0.14,0.46-0.35,0.86-0.63,1.2c-0.28,0.34-0.64,0.61-1.06,0.8
		C93.98,54.46,93.49,54.56,92.92,54.56z M92.92,53.44c0.65,0,1.13-0.24,1.44-0.71c0.31-0.47,0.47-1.13,0.47-1.97
		c0-0.84-0.16-1.49-0.47-1.96c-0.31-0.47-0.79-0.7-1.44-0.7s-1.13,0.23-1.44,0.7c-0.31,0.47-0.46,1.12-0.46,1.96
		c0,0.84,0.15,1.5,0.46,1.97C91.79,53.2,92.27,53.44,92.92,53.44z"/>
	<path class="st4" d="M98.14,47.13c0.1-0.02,0.2-0.03,0.3-0.04s0.2-0.01,0.3-0.01c0.1,0,0.2,0,0.29,0.01
		c0.09,0.01,0.19,0.02,0.29,0.04c0.03,0.14,0.06,0.33,0.08,0.57c0.03,0.24,0.04,0.44,0.04,0.6c0.09-0.16,0.21-0.32,0.36-0.48
		c0.15-0.16,0.31-0.3,0.5-0.43c0.19-0.13,0.41-0.23,0.65-0.31c0.24-0.08,0.51-0.12,0.8-0.12c0.83,0,1.44,0.24,1.84,0.71
		c0.4,0.48,0.59,1.18,0.59,2.11v4.6c-0.1,0.02-0.22,0.03-0.35,0.04c-0.13,0.01-0.25,0.01-0.35,0.01c-0.1,0-0.22,0-0.35-0.01
		c-0.13-0.01-0.24-0.02-0.35-0.04v-4.21c0-0.67-0.1-1.16-0.31-1.48c-0.21-0.32-0.54-0.47-0.99-0.47c-0.26,0-0.51,0.05-0.75,0.14
		c-0.24,0.09-0.44,0.24-0.62,0.44c-0.18,0.2-0.32,0.46-0.43,0.77c-0.11,0.32-0.16,0.7-0.16,1.14v3.68c-0.1,0.02-0.22,0.03-0.35,0.04
		c-0.13,0.01-0.24,0.01-0.35,0.01c-0.1,0-0.22,0-0.35-0.01c-0.13-0.01-0.25-0.02-0.35-0.04V47.13z"/>
	<path class="st4" d="M110.2,53.45c0.84,0.02,1.45,0.2,1.82,0.54c0.38,0.34,0.56,0.81,0.56,1.4c0,0.39-0.1,0.73-0.3,1.04
		c-0.2,0.31-0.47,0.57-0.82,0.79c-0.35,0.22-0.76,0.39-1.24,0.51c-0.48,0.12-0.99,0.18-1.55,0.18c-0.97,0-1.71-0.15-2.22-0.45
		c-0.51-0.3-0.76-0.78-0.76-1.43c0-0.39,0.1-0.73,0.31-1.04c0.21-0.31,0.48-0.55,0.81-0.73c-0.19-0.12-0.35-0.28-0.47-0.46
		c-0.13-0.18-0.19-0.41-0.19-0.69c0-0.35,0.08-0.65,0.23-0.9c0.16-0.25,0.37-0.48,0.63-0.68c-0.31-0.22-0.56-0.5-0.75-0.84
		c-0.19-0.34-0.28-0.73-0.28-1.17c0-0.36,0.07-0.69,0.2-1c0.13-0.31,0.32-0.58,0.57-0.81c0.25-0.23,0.56-0.41,0.93-0.54
		c0.37-0.13,0.79-0.2,1.26-0.2c0.42,0,0.81,0.06,1.15,0.18c0.34,0.12,0.64,0.28,0.88,0.47c0.19-0.15,0.44-0.28,0.76-0.38
		c0.32-0.1,0.67-0.15,1.06-0.15c0.04,0.18,0.06,0.38,0.06,0.59c0,0.1,0,0.21-0.01,0.33c-0.01,0.11-0.02,0.23-0.04,0.34h-1.27
		c0.1,0.16,0.18,0.34,0.24,0.52c0.06,0.19,0.08,0.41,0.08,0.65c0,0.39-0.07,0.74-0.21,1.05c-0.14,0.31-0.34,0.58-0.6,0.8
		c-0.26,0.22-0.57,0.39-0.93,0.51c-0.36,0.12-0.75,0.18-1.17,0.18c-0.39,0-0.73-0.04-1.05-0.13c-0.13,0.08-0.26,0.19-0.39,0.35
		c-0.13,0.15-0.19,0.32-0.19,0.5c0,0.17,0.06,0.32,0.18,0.45c0.12,0.13,0.4,0.2,0.82,0.2L110.2,53.45z M108.29,54.57
		c-0.42-0.01-0.74,0.1-0.95,0.34c-0.21,0.24-0.32,0.52-0.32,0.85c0,0.21,0.04,0.38,0.13,0.51c0.08,0.13,0.2,0.24,0.36,0.32
		c0.16,0.08,0.34,0.14,0.55,0.17c0.21,0.03,0.45,0.05,0.7,0.05c0.75,0,1.34-0.13,1.77-0.38c0.42-0.25,0.64-0.56,0.64-0.94
		c0-0.28-0.09-0.5-0.27-0.65c-0.18-0.15-0.51-0.23-0.99-0.24L108.29,54.57z M108.94,51.04c0.51,0,0.89-0.14,1.13-0.42
		c0.25-0.28,0.37-0.65,0.37-1.09c0-0.45-0.12-0.82-0.37-1.11c-0.25-0.29-0.62-0.43-1.13-0.43c-0.51,0-0.88,0.14-1.12,0.43
		c-0.24,0.29-0.36,0.66-0.36,1.11c0,0.44,0.12,0.81,0.36,1.09C108.06,50.89,108.43,51.04,108.94,51.04z"/>
	<path class="st4" d="M114.01,53.07c0.25,0.1,0.53,0.19,0.84,0.25c0.31,0.06,0.61,0.09,0.91,0.09c0.22,0,0.42-0.02,0.62-0.07
		c0.2-0.05,0.37-0.12,0.52-0.21c0.15-0.09,0.26-0.21,0.35-0.35c0.09-0.14,0.13-0.29,0.13-0.46c0-0.19-0.04-0.34-0.11-0.47
		c-0.07-0.12-0.17-0.23-0.28-0.31c-0.12-0.09-0.25-0.16-0.41-0.22c-0.16-0.06-0.32-0.12-0.5-0.18l-0.5-0.18
		c-0.6-0.23-1.04-0.48-1.32-0.76c-0.27-0.28-0.41-0.67-0.41-1.15c0-0.64,0.23-1.15,0.69-1.53c0.46-0.38,1.13-0.57,2.02-0.57
		c0.37,0,0.73,0.04,1.08,0.11c0.35,0.07,0.66,0.15,0.93,0.25c-0.02,0.19-0.05,0.38-0.11,0.57c-0.05,0.19-0.12,0.36-0.19,0.52
		c-0.21-0.07-0.46-0.15-0.74-0.22c-0.29-0.07-0.6-0.11-0.93-0.11c-0.35,0-0.66,0.06-0.93,0.18c-0.27,0.12-0.4,0.34-0.4,0.65
		c0,0.16,0.03,0.3,0.1,0.41c0.07,0.11,0.16,0.21,0.27,0.29c0.11,0.08,0.24,0.15,0.39,0.21c0.15,0.06,0.3,0.11,0.47,0.17l0.62,0.21
		c0.23,0.08,0.44,0.17,0.64,0.27c0.2,0.1,0.38,0.23,0.52,0.39c0.15,0.15,0.26,0.34,0.35,0.56c0.09,0.22,0.13,0.49,0.13,0.8
		c0,0.35-0.07,0.67-0.21,0.96c-0.14,0.29-0.34,0.53-0.6,0.74c-0.26,0.2-0.57,0.36-0.94,0.47c-0.37,0.11-0.77,0.17-1.22,0.17
		c-0.45,0-0.85-0.03-1.19-0.09c-0.34-0.06-0.65-0.14-0.95-0.25c0.02-0.19,0.06-0.38,0.12-0.57
		C113.86,53.45,113.93,53.26,114.01,53.07z"/>
	<path class="st4" d="M120.99,48.24h-0.92c-0.02-0.08-0.03-0.16-0.04-0.26c-0.01-0.1-0.01-0.2-0.01-0.29c0-0.09,0-0.19,0.01-0.29
		c0.01-0.1,0.02-0.19,0.04-0.26h2.29v7.25c-0.1,0.02-0.22,0.03-0.35,0.04c-0.13,0.01-0.24,0.01-0.35,0.01c-0.09,0-0.21,0-0.33-0.01
		c-0.13-0.01-0.24-0.02-0.35-0.04V48.24z M120.68,45.53c-0.02-0.11-0.03-0.24-0.04-0.37c0-0.13-0.01-0.25-0.01-0.35
		c0-0.1,0-0.22,0.01-0.35c0-0.13,0.02-0.25,0.04-0.35c0.12-0.02,0.25-0.03,0.4-0.04c0.14-0.01,0.26-0.01,0.37-0.01
		c0.1,0,0.23,0.01,0.37,0.01c0.14,0.01,0.27,0.02,0.38,0.04c0.02,0.1,0.03,0.22,0.03,0.35c0,0.13,0.01,0.25,0.01,0.35
		c0,0.1,0,0.22-0.01,0.35c0,0.13-0.02,0.26-0.03,0.37c-0.11,0.02-0.24,0.03-0.38,0.04c-0.14,0.01-0.26,0.01-0.36,0.01
		c-0.11,0-0.24,0-0.38-0.01C120.94,45.57,120.8,45.55,120.68,45.53z"/>
	<path class="st4" d="M124.61,44.02c0.1-0.02,0.22-0.03,0.35-0.04c0.13-0.01,0.24-0.01,0.35-0.01c0.1,0,0.22,0,0.35,0.01
		c0.13,0.01,0.24,0.02,0.35,0.04v8.17c0,0.26,0.02,0.47,0.07,0.62c0.05,0.15,0.11,0.27,0.19,0.35c0.08,0.08,0.17,0.13,0.28,0.16
		c0.11,0.02,0.22,0.04,0.35,0.04c0.09,0,0.18,0,0.29-0.01c0.11-0.01,0.2-0.02,0.28-0.04c0.08,0.33,0.13,0.69,0.13,1.08
		c-0.13,0.05-0.29,0.08-0.48,0.09c-0.19,0.01-0.36,0.02-0.52,0.02c-0.27,0-0.53-0.03-0.76-0.1c-0.24-0.07-0.44-0.17-0.62-0.33
		c-0.18-0.15-0.32-0.35-0.42-0.61c-0.1-0.25-0.16-0.57-0.16-0.95V44.02z"/>
	<path class="st4" d="M135.46,52.9c0.21,0.41,0.34,0.8,0.4,1.17c-0.4,0.17-0.8,0.29-1.22,0.37c-0.42,0.08-0.86,0.11-1.34,0.11
		c-0.74,0-1.4-0.12-1.99-0.36c-0.59-0.24-1.09-0.58-1.49-1.03c-0.41-0.45-0.72-0.99-0.93-1.63c-0.22-0.64-0.33-1.36-0.33-2.16
		c0-0.81,0.11-1.54,0.33-2.2c0.22-0.66,0.53-1.21,0.93-1.68c0.41-0.46,0.9-0.82,1.48-1.07c0.59-0.25,1.24-0.38,1.97-0.38
		c0.54,0,1,0.04,1.39,0.11c0.39,0.08,0.73,0.17,1.03,0.27c-0.02,0.22-0.06,0.42-0.12,0.6c-0.06,0.18-0.13,0.38-0.22,0.59
		c-0.14-0.05-0.28-0.09-0.41-0.13c-0.13-0.04-0.27-0.07-0.42-0.1c-0.15-0.03-0.32-0.05-0.5-0.06c-0.18-0.01-0.39-0.02-0.63-0.02
		c-1.03,0-1.83,0.35-2.4,1.05c-0.57,0.7-0.86,1.7-0.86,3.01c0,0.67,0.08,1.25,0.24,1.74c0.16,0.49,0.39,0.9,0.68,1.22
		c0.29,0.32,0.64,0.56,1.05,0.72c0.41,0.16,0.87,0.24,1.38,0.24c0.4,0,0.75-0.03,1.07-0.1C134.87,53.12,135.18,53.02,135.46,52.9z"
		/>
	<path class="st4" d="M137.57,44.02c0.1-0.02,0.22-0.03,0.35-0.04c0.13-0.01,0.24-0.01,0.35-0.01c0.1,0,0.22,0,0.35,0.01
		c0.13,0.01,0.24,0.02,0.35,0.04v8.17c0,0.26,0.02,0.47,0.07,0.62c0.05,0.15,0.11,0.27,0.19,0.35c0.08,0.08,0.17,0.13,0.28,0.16
		c0.11,0.02,0.22,0.04,0.35,0.04c0.09,0,0.18,0,0.29-0.01c0.11-0.01,0.2-0.02,0.28-0.04c0.08,0.33,0.13,0.69,0.13,1.08
		c-0.13,0.05-0.29,0.08-0.48,0.09c-0.19,0.01-0.36,0.02-0.52,0.02c-0.27,0-0.53-0.03-0.76-0.1c-0.24-0.07-0.44-0.17-0.62-0.33
		c-0.18-0.15-0.32-0.35-0.42-0.61c-0.1-0.25-0.16-0.57-0.16-0.95V44.02z"/>
	<path class="st4" d="M141.72,47.13c0.1-0.02,0.22-0.03,0.35-0.04c0.13-0.01,0.25-0.01,0.34-0.01c0.1,0,0.22,0,0.35,0.01
		c0.13,0.01,0.25,0.02,0.35,0.04v3.97c0,0.45,0.04,0.83,0.13,1.13c0.09,0.3,0.21,0.53,0.38,0.7c0.17,0.17,0.38,0.29,0.62,0.35
		c0.25,0.07,0.53,0.1,0.85,0.1c0.48,0,0.89-0.05,1.23-0.16v-6.09c0.1-0.02,0.22-0.03,0.35-0.04c0.13-0.01,0.24-0.01,0.35-0.01
		c0.1,0,0.22,0,0.35,0.01c0.13,0.01,0.24,0.02,0.35,0.04v7.03c-0.33,0.09-0.72,0.18-1.18,0.27c-0.46,0.08-0.93,0.13-1.42,0.13
		c-0.46,0-0.9-0.04-1.31-0.12c-0.41-0.08-0.77-0.24-1.08-0.49c-0.31-0.25-0.56-0.59-0.74-1.03c-0.18-0.44-0.27-1.03-0.27-1.75V47.13
		z"/>
	<path class="st4" d="M149.91,44.02c0.1-0.02,0.22-0.03,0.35-0.04c0.13-0.01,0.24-0.01,0.35-0.01c0.1,0,0.22,0,0.35,0.01
		c0.13,0.01,0.25,0.02,0.35,0.04v3.99c0.17-0.28,0.43-0.53,0.79-0.74s0.79-0.31,1.3-0.31c0.43,0,0.83,0.07,1.2,0.21
		c0.37,0.14,0.68,0.36,0.95,0.66c0.26,0.3,0.47,0.67,0.62,1.13c0.15,0.46,0.22,1,0.22,1.62c0,1.25-0.35,2.22-1.05,2.92
		c-0.7,0.7-1.71,1.05-3.03,1.05c-0.41,0-0.84-0.04-1.28-0.12c-0.44-0.08-0.81-0.17-1.11-0.28V44.02z M151.31,53.21
		c0.17,0.06,0.35,0.1,0.54,0.12c0.19,0.02,0.39,0.04,0.6,0.04c0.35,0,0.67-0.05,0.97-0.16c0.3-0.11,0.55-0.27,0.77-0.5
		c0.22-0.22,0.39-0.5,0.52-0.85c0.13-0.34,0.19-0.75,0.19-1.22c0-0.78-0.14-1.39-0.41-1.82c-0.27-0.43-0.73-0.65-1.36-0.65
		c-0.22,0-0.43,0.04-0.64,0.11c-0.21,0.07-0.41,0.18-0.59,0.34c-0.18,0.16-0.32,0.36-0.43,0.62c-0.11,0.26-0.16,0.57-0.16,0.94
		V53.21z"/>
	<path class="st4" d="M157.99,54.39c-0.02-0.13-0.03-0.26-0.05-0.39c-0.01-0.13-0.02-0.26-0.02-0.39c0-0.13,0.01-0.27,0.02-0.4
		c0.02-0.14,0.03-0.27,0.05-0.4c0.13-0.02,0.26-0.03,0.39-0.04c0.13-0.01,0.26-0.01,0.39-0.01c0.13,0,0.26,0.01,0.4,0.01
		c0.13,0.01,0.26,0.02,0.4,0.04c0.02,0.13,0.04,0.26,0.05,0.4c0.01,0.13,0.02,0.26,0.02,0.4c0,0.13-0.01,0.26-0.02,0.4
		c-0.01,0.13-0.03,0.26-0.05,0.4c-0.13,0.02-0.26,0.03-0.39,0.04c-0.13,0.01-0.26,0.01-0.39,0.01c-0.13,0-0.26,0-0.4-0.01
		C158.25,54.42,158.12,54.41,157.99,54.39z"/>
	<path class="st4" d="M166.44,53.13c0.08,0.13,0.14,0.3,0.2,0.5c0.06,0.2,0.09,0.4,0.1,0.61c-0.56,0.22-1.19,0.33-1.91,0.33
		c-1.21,0-2.12-0.34-2.73-1.03c-0.61-0.68-0.92-1.61-0.92-2.76c0-0.54,0.08-1.04,0.23-1.5c0.15-0.46,0.38-0.86,0.67-1.2
		c0.3-0.34,0.67-0.61,1.11-0.81c0.44-0.2,0.96-0.3,1.54-0.3c0.39,0,0.74,0.02,1.04,0.07c0.3,0.05,0.59,0.12,0.86,0.23
		c0,0.16-0.02,0.35-0.06,0.56c-0.04,0.21-0.1,0.4-0.18,0.56c-0.46-0.16-0.99-0.24-1.58-0.24c-0.73,0-1.27,0.24-1.63,0.72
		c-0.36,0.48-0.54,1.12-0.54,1.91c0,0.91,0.2,1.57,0.61,1.99c0.41,0.42,0.96,0.63,1.67,0.63c0.28,0,0.54-0.02,0.78-0.06
		C165.96,53.29,166.2,53.22,166.44,53.13z"/>
	<path class="st4" d="M171.1,54.56c-0.57,0-1.06-0.1-1.48-0.29c-0.42-0.19-0.78-0.46-1.06-0.8c-0.28-0.34-0.49-0.74-0.63-1.2
		c-0.14-0.46-0.21-0.96-0.21-1.5c0-0.54,0.07-1.04,0.21-1.5c0.14-0.46,0.35-0.86,0.63-1.2c0.28-0.34,0.64-0.61,1.06-0.81
		c0.42-0.2,0.92-0.3,1.48-0.3c0.57,0,1.06,0.1,1.49,0.3c0.42,0.2,0.78,0.47,1.06,0.81c0.28,0.34,0.49,0.74,0.63,1.2
		c0.14,0.46,0.21,0.96,0.21,1.5c0,0.54-0.07,1.04-0.21,1.5c-0.14,0.46-0.35,0.86-0.63,1.2c-0.28,0.34-0.64,0.61-1.06,0.8
		C172.16,54.46,171.66,54.56,171.1,54.56z M171.1,53.44c0.65,0,1.13-0.24,1.44-0.71c0.31-0.47,0.47-1.13,0.47-1.97
		c0-0.84-0.16-1.49-0.47-1.96c-0.31-0.47-0.79-0.7-1.44-0.7c-0.65,0-1.13,0.23-1.44,0.7c-0.31,0.47-0.46,1.12-0.46,1.96
		c0,0.84,0.15,1.5,0.46,1.97S170.44,53.44,171.1,53.44z"/>
	<path class="st4" d="M176.31,47.13c0.1-0.02,0.21-0.03,0.3-0.04c0.1-0.01,0.2-0.01,0.3-0.01s0.2,0,0.29,0.01
		c0.09,0.01,0.19,0.02,0.29,0.04c0.03,0.14,0.06,0.33,0.08,0.56c0.03,0.23,0.04,0.43,0.04,0.59c0.08-0.17,0.19-0.33,0.32-0.49
		c0.13-0.16,0.28-0.29,0.45-0.42c0.18-0.12,0.38-0.22,0.6-0.3c0.23-0.08,0.48-0.11,0.75-0.11c0.57,0,1,0.12,1.31,0.35
		c0.31,0.23,0.54,0.55,0.7,0.97c0.09-0.16,0.21-0.32,0.35-0.48c0.14-0.16,0.29-0.3,0.46-0.42c0.17-0.12,0.36-0.22,0.58-0.3
		c0.22-0.08,0.46-0.11,0.74-0.11c0.84,0,1.45,0.24,1.83,0.71c0.38,0.47,0.57,1.17,0.57,2.09v4.63c-0.1,0.02-0.22,0.03-0.35,0.04
		c-0.13,0.01-0.25,0.01-0.35,0.01c-0.1,0-0.22,0-0.35-0.01c-0.13-0.01-0.24-0.02-0.35-0.04v-4.21c0-0.65-0.1-1.14-0.3-1.46
		c-0.2-0.32-0.52-0.49-0.98-0.49c-0.48,0-0.87,0.18-1.17,0.52c-0.3,0.35-0.45,0.86-0.45,1.54v4.1c-0.1,0.02-0.22,0.03-0.35,0.04
		c-0.13,0.01-0.24,0.01-0.35,0.01s-0.22,0-0.35-0.01c-0.13-0.01-0.24-0.02-0.35-0.04v-4.31c0-0.63-0.09-1.11-0.28-1.42
		c-0.19-0.32-0.49-0.47-0.91-0.47c-0.24,0-0.46,0.05-0.66,0.16c-0.21,0.1-0.39,0.26-0.54,0.47c-0.16,0.21-0.28,0.47-0.37,0.79
		c-0.09,0.32-0.13,0.68-0.13,1.1v3.71c-0.1,0.02-0.22,0.03-0.35,0.04c-0.13,0.01-0.24,0.01-0.35,0.01c-0.1,0-0.22,0-0.35-0.01
		c-0.13-0.01-0.25-0.02-0.35-0.04V47.13z"/>
</g>
</svg>
